<svg width="300" height="200" viewBox="0 0 300 200" fill="none" xmlns="http://www.w3.org/2000/svg">
<rect width="300" height="200" fill="url(#paint0_linear_1_123)"/>
<g filter="url(#filter0_b_1_123)">
<rect x="66" y="16" width="167.882" height="167.882" rx="15" fill="white" fill-opacity="0.1"/>
<rect x="66.5" y="16.5" width="166.882" height="166.882" rx="14.5" stroke="white" stroke-opacity="0.14"/>
</g>
<path d="M149 119.069C160.287 113.885 171.575 105.653 171.575 83.5488V67.3583C164.049 66.9897 156.525 63.2923 149 56.2661C141.475 63.2923 133.951 66.9897 126.425 67.3583V83.5488C126.425 105.653 137.713 113.885 149 119.069Z" fill="#27D0B9" fill-opacity="0.87"/>
<path d="M149 102.45C144.041 102.45 140.022 98.4295 140.022 93.4718V86.851H157.979V93.4718C157.978 98.4308 153.959 102.45 149 102.45Z" fill="#43BEAD" fill-opacity="0.866667"/>
<g filter="url(#filter1_b_1_123)">
<path d="M130.418 111.298H93.2667V126.776H130.418V111.298Z" fill="#07E9D9" fill-opacity="0.22"/>
<path d="M94.6717 112.703H129.013V125.371H94.6717V112.703Z" stroke="#07E9D9" stroke-opacity="0.28" stroke-width="2.81"/>
</g>
<g filter="url(#filter2_b_1_123)">
<path d="M204.733 111.298H167.582V126.776H204.733V111.298Z" fill="#07E9D9" fill-opacity="0.22"/>
<path d="M168.987 112.703H203.328V125.371H168.987V112.703Z" stroke="#07E9D9" stroke-opacity="0.28" stroke-width="2.81"/>
</g>
<g filter="url(#filter3_b_1_123)">
<path d="M204.733 95.8063H186.151V111.285H204.733V95.8063Z" fill="#07E9D9" fill-opacity="0.22"/>
<path d="M187.556 97.2113H203.328V109.88H187.556V97.2113Z" stroke="#07E9D9" stroke-opacity="0.28" stroke-width="2.81"/>
</g>
<g filter="url(#filter4_b_1_123)">
<path d="M111.849 95.8063H93.2667V111.285H111.849V95.8063Z" fill="#07E9D9" fill-opacity="0.22"/>
<path d="M94.6717 97.2113H110.444V109.88H94.6717V97.2113Z" stroke="#07E9D9" stroke-opacity="0.28" stroke-width="2.81"/>
</g>
<g filter="url(#filter5_b_1_123)">
<path d="M149 126.776H111.849V142.255H149V126.776Z" fill="#07E9D9" fill-opacity="0.22"/>
<path d="M113.254 128.181H147.595V140.85H113.254V128.181Z" stroke="#07E9D9" stroke-opacity="0.28" stroke-width="2.81"/>
</g>
<g filter="url(#filter6_b_1_123)">
<path d="M186.151 126.776H149V142.255H186.151V126.776Z" fill="#07E9D9" fill-opacity="0.22"/>
<path d="M150.405 128.181H184.746V140.85H150.405V128.181Z" stroke="#07E9D9" stroke-opacity="0.28" stroke-width="2.81"/>
</g>
<g filter="url(#filter7_b_1_123)">
<path d="M204.733 126.776H186.151V142.255H204.733V126.776Z" fill="#07E9D9" fill-opacity="0.22"/>
<path d="M187.556 128.181H203.328V140.85H187.556V128.181Z" stroke="#07E9D9" stroke-opacity="0.28" stroke-width="2.81"/>
</g>
<g filter="url(#filter8_b_1_123)">
<path d="M111.849 126.776H93.2667V142.255H111.849V126.776Z" fill="#07E9D9" fill-opacity="0.22"/>
<path d="M94.6717 128.181H110.444V140.85H94.6717V128.181Z" stroke="#07E9D9" stroke-opacity="0.28" stroke-width="2.81"/>
</g>
<g filter="url(#filter9_b_1_123)">
<path d="M171.575 80.3289V83.5487C171.575 88.2253 171.064 92.2748 170.161 95.8126H204.733V80.3289H171.575Z" fill="#07E9D9" fill-opacity="0.22"/>
<path d="M172.98 83.5487V81.7339H203.328V94.4076H171.93C172.608 91.1799 172.98 87.5821 172.98 83.5487Z" stroke="#07E9D9" stroke-opacity="0.28" stroke-width="2.81"/>
</g>
<g filter="url(#filter10_b_1_123)">
<path d="M126.425 83.5487V80.3289H93.2667V95.8126H127.839C126.936 92.2761 126.425 88.2253 126.425 83.5487Z" fill="#07E9D9" fill-opacity="0.22"/>
<path d="M94.6717 81.7339H125.02V83.5487C125.02 87.5818 125.392 91.1805 126.07 94.4076H94.6717V81.7339Z" stroke="#07E9D9" stroke-opacity="0.28" stroke-width="2.81"/>
</g>
<g filter="url(#filter11_b_1_123)">
<path d="M127.839 95.8126H111.845V111.296H136.811C132.84 107.589 129.592 102.674 127.839 95.8126Z" fill="#07E9D9" fill-opacity="0.22"/>
<path d="M113.25 109.891V97.2176H126.763C128.254 102.447 130.616 106.568 133.503 109.891H113.25Z" stroke="#07E9D9" stroke-opacity="0.28" stroke-width="2.81"/>
</g>
<g filter="url(#filter12_b_1_123)">
<path d="M170.161 95.8126C168.408 102.674 165.16 107.589 161.19 111.296H186.156V95.8126H170.161Z" fill="#07E9D9" fill-opacity="0.22"/>
<path d="M171.237 97.2176H184.751V109.891H164.498C167.384 106.568 169.746 102.447 171.237 97.2176Z" stroke="#07E9D9" stroke-opacity="0.28" stroke-width="2.81"/>
</g>
<g filter="url(#filter13_b_1_123)">
<path d="M149 119.069C144.733 117.109 140.468 114.711 136.81 111.296H130.422V126.78H167.577V111.296H161.189C157.532 114.713 153.267 117.109 149 119.069Z" fill="#07E9D9" fill-opacity="0.22"/>
<path d="M148.414 120.345L149 120.615L149.586 120.345C153.764 118.427 158.019 116.061 161.737 112.701H166.172V125.375H131.827V112.701H136.262C139.98 116.06 144.236 118.427 148.414 120.345Z" stroke="#07E9D9" stroke-opacity="0.28" stroke-width="2.81"/>
</g>
<path d="M149 103.718C143.351 103.718 138.755 99.1225 138.755 93.4719V86.851C138.755 86.1518 139.323 85.5844 140.022 85.5844H157.979C158.68 85.5844 159.246 86.1518 159.246 86.851V93.4719C159.246 99.1212 154.649 103.718 149 103.718ZM141.289 88.1177V93.4719C141.289 97.7241 144.748 101.185 149 101.185C153.252 101.185 156.713 97.7253 156.713 93.4719V88.1177H141.289Z" fill="#1CE4C9" fill-opacity="0.87"/>
<path d="M149 97.0058C148.301 97.0058 147.733 96.4384 147.733 95.7392V93.0184C147.733 92.3192 148.301 91.7517 149 91.7517C149.699 91.7517 150.267 92.3192 150.267 93.0184V95.7392C150.267 96.4384 149.699 97.0058 149 97.0058Z" fill="#07E9D9" fill-opacity="0.28"/>
<path d="M154.532 88.1176H143.467C142.768 88.1176 142.201 87.5502 142.201 86.851V78.4162C142.201 74.6669 145.251 71.6168 149 71.6168C152.749 71.6168 155.798 74.6669 155.798 78.4162V86.851C155.798 87.5502 155.232 88.1176 154.532 88.1176ZM144.734 85.5843H153.265V78.4162C153.265 76.064 151.351 74.1501 149 74.1501C146.648 74.1501 144.734 76.064 144.734 78.4162V85.5843Z" fill="#1CE4C9" fill-opacity="0.87"/>
<path d="M149 120.335C148.819 120.335 148.639 120.297 148.472 120.22C136.944 114.925 125.16 106.429 125.16 83.5488V67.3582C125.16 66.6831 125.69 66.1258 126.365 66.0928C133.547 65.7407 140.872 62.1231 148.136 55.3401C148.624 54.8866 149.377 54.8866 149.865 55.3401C157.128 62.1231 164.455 65.7407 171.637 66.0928C172.312 66.1258 172.841 66.6831 172.841 67.3582V83.5488C172.841 106.43 161.056 114.925 149.529 120.22C149.361 120.296 149.181 120.335 149 120.335ZM127.692 68.5375V83.55C127.692 104.65 138.373 112.696 149 117.673C159.627 112.696 170.307 104.65 170.307 83.55V68.5375C163.197 67.8636 156.04 64.3195 149 57.9836C141.961 64.3195 134.803 67.8636 127.692 68.5375Z" fill="black"/>
<path d="M130.422 128.047H93.2667C92.5675 128.047 92 127.481 92 126.78V111.296C92 110.596 92.5675 110.03 93.2667 110.03H130.422C131.121 110.03 131.688 110.596 131.688 111.296V126.78C131.688 127.479 131.122 128.047 130.422 128.047ZM94.5333 125.513H129.155V112.563H94.5333V125.513Z" fill="#43BEAD" fill-opacity="0.866667"/>
<path d="M204.733 128.047H167.578C166.878 128.047 166.312 127.481 166.312 126.78V111.296C166.312 110.596 166.878 110.03 167.578 110.03H204.733C205.434 110.03 206 110.596 206 111.296V126.78C206 127.479 205.434 128.047 204.733 128.047ZM168.845 125.513H203.467V112.563H168.845V125.513Z" fill="#43BEAD" fill-opacity="0.866667"/>
<path d="M204.733 112.563H186.155C185.455 112.563 184.888 111.997 184.888 111.296V95.8127C184.888 95.1135 185.455 94.546 186.155 94.546H204.733C205.434 94.546 206 95.1135 206 95.8127V111.296C206 111.997 205.434 112.563 204.733 112.563ZM187.422 110.03H203.467V97.0794H187.422V110.03Z" fill="#43BEAD" fill-opacity="0.866667"/>
<path d="M111.845 112.563H93.2667C92.5675 112.563 92 111.997 92 111.296V95.8127C92 95.1135 92.5675 94.546 93.2667 94.546H111.845C112.544 94.546 113.112 95.1135 113.112 95.8127V111.296C113.112 111.997 112.544 112.563 111.845 112.563ZM94.5333 110.03H110.578V97.0794H94.5333V110.03Z" fill="#43BEAD" fill-opacity="0.866667"/>
<path d="M149 143.529H111.845C111.146 143.529 110.578 142.963 110.578 142.263V126.78C110.578 126.08 111.146 125.513 111.845 125.513H149C149.699 125.513 150.267 126.08 150.267 126.78V142.264C150.267 142.963 149.699 143.529 149 143.529ZM113.112 140.996H147.733V128.047H113.112V140.996Z" fill="#43BEAD" fill-opacity="0.866667"/>
<path d="M186.155 143.529H149C148.301 143.529 147.733 142.963 147.733 142.263V126.78C147.733 126.08 148.301 125.513 149 125.513H186.155C186.856 125.513 187.422 126.08 187.422 126.78V142.264C187.422 142.963 186.856 143.529 186.155 143.529ZM150.267 140.996H184.888V128.047H150.267V140.996Z" fill="#43BEAD" fill-opacity="0.866667"/>
<path d="M204.733 143.529H186.155C185.455 143.529 184.888 142.963 184.888 142.263V126.78C184.888 126.08 185.455 125.513 186.155 125.513H204.733C205.434 125.513 206 126.08 206 126.78V142.264C206 142.963 205.434 143.529 204.733 143.529ZM187.422 140.996H203.467V128.047H187.422V140.996Z" fill="#43BEAD" fill-opacity="0.866667"/>
<path d="M111.845 143.529H93.2667C92.5675 143.529 92 142.963 92 142.263V126.78C92 126.08 92.5675 125.513 93.2667 125.513H111.845C112.544 125.513 113.112 126.08 113.112 126.78V142.264C113.112 142.963 112.544 143.529 111.845 143.529ZM94.5333 140.996H110.578V128.047H94.5333V140.996Z" fill="#43BEAD" fill-opacity="0.866667"/>
<path d="M204.733 97.0794H170.161C169.77 97.0794 169.4 96.8982 169.16 96.5892C168.921 96.2801 168.837 95.8773 168.934 95.4986C169.844 91.9291 170.307 87.9074 170.307 83.5476V80.3277C170.307 79.6285 170.873 79.061 171.573 79.061H204.733C205.434 79.061 206 79.6285 206 80.3277V95.8114C206 96.5132 205.434 97.0794 204.733 97.0794ZM171.758 94.546H203.467V81.5956H172.84V83.5488C172.84 87.4932 172.476 91.1843 171.758 94.546Z" fill="#43BEAD" fill-opacity="0.866667"/>
<path d="M149 120.335C148.819 120.335 148.639 120.297 148.472 120.22C136.944 114.925 125.16 106.429 125.16 83.5488V67.3582C125.16 66.6831 125.69 66.1258 126.365 66.0928C133.547 65.7407 140.872 62.1231 148.136 55.3401C148.624 54.8866 149.377 54.8866 149.865 55.3401C157.128 62.1231 164.455 65.7407 171.637 66.0928C172.312 66.1258 172.841 66.6831 172.841 67.3582V83.5488C172.841 106.43 161.056 114.925 149.529 120.22C149.361 120.296 149.181 120.335 149 120.335ZM127.692 68.5375V83.55C127.692 104.65 138.373 112.696 149 117.673C159.627 112.696 170.307 104.65 170.307 83.55V68.5375C163.197 67.8636 156.04 64.3195 149 57.9836C141.961 64.3195 134.803 67.8636 127.692 68.5375Z" fill="#43BEAD" fill-opacity="0.866667"/>
<path d="M127.839 97.0793H93.2667C92.5675 97.0793 92 96.5119 92 95.8127V80.3289C92 79.6297 92.5675 79.0623 93.2667 79.0623H126.425C127.125 79.0623 127.692 79.6297 127.692 80.3289V83.5488C127.692 87.9074 128.154 91.9291 129.066 95.4998C129.164 95.8785 129.079 96.2813 128.84 96.5904C128.6 96.8995 128.23 97.0793 127.839 97.0793ZM94.5333 94.546H126.242C125.522 91.183 125.159 87.4919 125.159 83.5488V81.5956H94.5333V94.546Z" fill="#43BEAD" fill-opacity="0.866667"/>
<path d="M136.81 112.563H111.844C111.144 112.563 110.577 111.997 110.577 111.296V95.8127C110.577 95.1135 111.144 94.546 111.844 94.546H127.839C128.418 94.546 128.923 94.9387 129.066 95.4986C130.609 101.535 133.425 106.399 137.675 110.37C138.055 110.725 138.179 111.277 137.989 111.761C137.798 112.245 137.33 112.563 136.81 112.563ZM113.112 110.03H133.806C130.573 106.384 128.287 102.117 126.869 97.0794H113.112V110.03Z" fill="#43BEAD" fill-opacity="0.866667"/>
<path d="M186.155 112.563H161.19C160.67 112.563 160.204 112.245 160.011 111.761C159.821 111.277 159.945 110.726 160.325 110.37C164.575 106.399 167.391 101.534 168.934 95.4986C169.077 94.9374 169.582 94.546 170.161 94.546H186.155C186.856 94.546 187.422 95.1135 187.422 95.8127V111.296C187.422 111.997 186.856 112.563 186.155 112.563ZM164.194 110.03H184.888V97.0794H171.132C169.714 102.116 167.429 106.384 164.194 110.03Z" fill="#43BEAD" fill-opacity="0.866667"/>
<path d="M167.578 128.047H130.422C129.723 128.047 129.155 127.481 129.155 126.78V111.296C129.155 110.596 129.723 110.03 130.422 110.03H136.81C137.13 110.03 137.44 110.153 137.675 110.372C140.592 113.095 144.201 115.423 149 117.673C153.798 115.424 157.408 113.096 160.325 110.372C160.561 110.151 160.87 110.03 161.19 110.03H167.578C168.279 110.03 168.845 110.596 168.845 111.296V126.78C168.845 127.479 168.279 128.047 167.578 128.047ZM131.688 125.513H166.31V112.563H161.683C158.522 115.429 154.643 117.87 149.528 120.22C149.191 120.373 148.807 120.373 148.471 120.22C143.354 117.87 139.476 115.429 136.316 112.563H131.688V125.513Z" fill="#43BEAD" fill-opacity="0.866667"/>
<defs>
<filter id="filter0_b_1_123" x="47.4" y="-2.6" width="205.082" height="205.082" filterUnits="userSpaceOnUse" color-interpolation-filters="sRGB">
<feFlood flood-opacity="0" result="BackgroundImageFix"/>
<feGaussianBlur in="BackgroundImageFix" stdDeviation="9.3"/>
<feComposite in2="SourceAlpha" operator="in" result="effect1_backgroundBlur_1_123"/>
<feBlend mode="normal" in="SourceGraphic" in2="effect1_backgroundBlur_1_123" result="shape"/>
</filter>
<filter id="filter1_b_1_123" x="84.8667" y="102.898" width="53.9513" height="32.2786" filterUnits="userSpaceOnUse" color-interpolation-filters="sRGB">
<feFlood flood-opacity="0" result="BackgroundImageFix"/>
<feGaussianBlur in="BackgroundImageFix" stdDeviation="4.2"/>
<feComposite in2="SourceAlpha" operator="in" result="effect1_backgroundBlur_1_123"/>
<feBlend mode="normal" in="SourceGraphic" in2="effect1_backgroundBlur_1_123" result="shape"/>
</filter>
<filter id="filter2_b_1_123" x="159.182" y="102.898" width="53.9513" height="32.2786" filterUnits="userSpaceOnUse" color-interpolation-filters="sRGB">
<feFlood flood-opacity="0" result="BackgroundImageFix"/>
<feGaussianBlur in="BackgroundImageFix" stdDeviation="4.2"/>
<feComposite in2="SourceAlpha" operator="in" result="effect1_backgroundBlur_1_123"/>
<feBlend mode="normal" in="SourceGraphic" in2="effect1_backgroundBlur_1_123" result="shape"/>
</filter>
<filter id="filter3_b_1_123" x="177.751" y="87.4063" width="35.382" height="32.2786" filterUnits="userSpaceOnUse" color-interpolation-filters="sRGB">
<feFlood flood-opacity="0" result="BackgroundImageFix"/>
<feGaussianBlur in="BackgroundImageFix" stdDeviation="4.2"/>
<feComposite in2="SourceAlpha" operator="in" result="effect1_backgroundBlur_1_123"/>
<feBlend mode="normal" in="SourceGraphic" in2="effect1_backgroundBlur_1_123" result="shape"/>
</filter>
<filter id="filter4_b_1_123" x="84.8667" y="87.4063" width="35.382" height="32.2786" filterUnits="userSpaceOnUse" color-interpolation-filters="sRGB">
<feFlood flood-opacity="0" result="BackgroundImageFix"/>
<feGaussianBlur in="BackgroundImageFix" stdDeviation="4.2"/>
<feComposite in2="SourceAlpha" operator="in" result="effect1_backgroundBlur_1_123"/>
<feBlend mode="normal" in="SourceGraphic" in2="effect1_backgroundBlur_1_123" result="shape"/>
</filter>
<filter id="filter5_b_1_123" x="103.449" y="118.376" width="53.9513" height="32.2786" filterUnits="userSpaceOnUse" color-interpolation-filters="sRGB">
<feFlood flood-opacity="0" result="BackgroundImageFix"/>
<feGaussianBlur in="BackgroundImageFix" stdDeviation="4.2"/>
<feComposite in2="SourceAlpha" operator="in" result="effect1_backgroundBlur_1_123"/>
<feBlend mode="normal" in="SourceGraphic" in2="effect1_backgroundBlur_1_123" result="shape"/>
</filter>
<filter id="filter6_b_1_123" x="140.6" y="118.376" width="53.9513" height="32.2786" filterUnits="userSpaceOnUse" color-interpolation-filters="sRGB">
<feFlood flood-opacity="0" result="BackgroundImageFix"/>
<feGaussianBlur in="BackgroundImageFix" stdDeviation="4.2"/>
<feComposite in2="SourceAlpha" operator="in" result="effect1_backgroundBlur_1_123"/>
<feBlend mode="normal" in="SourceGraphic" in2="effect1_backgroundBlur_1_123" result="shape"/>
</filter>
<filter id="filter7_b_1_123" x="177.751" y="118.376" width="35.382" height="32.2786" filterUnits="userSpaceOnUse" color-interpolation-filters="sRGB">
<feFlood flood-opacity="0" result="BackgroundImageFix"/>
<feGaussianBlur in="BackgroundImageFix" stdDeviation="4.2"/>
<feComposite in2="SourceAlpha" operator="in" result="effect1_backgroundBlur_1_123"/>
<feBlend mode="normal" in="SourceGraphic" in2="effect1_backgroundBlur_1_123" result="shape"/>
</filter>
<filter id="filter8_b_1_123" x="84.8667" y="118.376" width="35.382" height="32.2786" filterUnits="userSpaceOnUse" color-interpolation-filters="sRGB">
<feFlood flood-opacity="0" result="BackgroundImageFix"/>
<feGaussianBlur in="BackgroundImageFix" stdDeviation="4.2"/>
<feComposite in2="SourceAlpha" operator="in" result="effect1_backgroundBlur_1_123"/>
<feBlend mode="normal" in="SourceGraphic" in2="effect1_backgroundBlur_1_123" result="shape"/>
</filter>
<filter id="filter9_b_1_123" x="161.761" y="71.9289" width="51.3724" height="32.2838" filterUnits="userSpaceOnUse" color-interpolation-filters="sRGB">
<feFlood flood-opacity="0" result="BackgroundImageFix"/>
<feGaussianBlur in="BackgroundImageFix" stdDeviation="4.2"/>
<feComposite in2="SourceAlpha" operator="in" result="effect1_backgroundBlur_1_123"/>
<feBlend mode="normal" in="SourceGraphic" in2="effect1_backgroundBlur_1_123" result="shape"/>
</filter>
<filter id="filter10_b_1_123" x="84.8667" y="71.9289" width="51.3724" height="32.2838" filterUnits="userSpaceOnUse" color-interpolation-filters="sRGB">
<feFlood flood-opacity="0" result="BackgroundImageFix"/>
<feGaussianBlur in="BackgroundImageFix" stdDeviation="4.2"/>
<feComposite in2="SourceAlpha" operator="in" result="effect1_backgroundBlur_1_123"/>
<feBlend mode="normal" in="SourceGraphic" in2="effect1_backgroundBlur_1_123" result="shape"/>
</filter>
<filter id="filter11_b_1_123" x="103.445" y="87.4126" width="41.766" height="32.2838" filterUnits="userSpaceOnUse" color-interpolation-filters="sRGB">
<feFlood flood-opacity="0" result="BackgroundImageFix"/>
<feGaussianBlur in="BackgroundImageFix" stdDeviation="4.2"/>
<feComposite in2="SourceAlpha" operator="in" result="effect1_backgroundBlur_1_123"/>
<feBlend mode="normal" in="SourceGraphic" in2="effect1_backgroundBlur_1_123" result="shape"/>
</filter>
<filter id="filter12_b_1_123" x="152.79" y="87.4126" width="41.766" height="32.2838" filterUnits="userSpaceOnUse" color-interpolation-filters="sRGB">
<feFlood flood-opacity="0" result="BackgroundImageFix"/>
<feGaussianBlur in="BackgroundImageFix" stdDeviation="4.2"/>
<feComposite in2="SourceAlpha" operator="in" result="effect1_backgroundBlur_1_123"/>
<feBlend mode="normal" in="SourceGraphic" in2="effect1_backgroundBlur_1_123" result="shape"/>
</filter>
<filter id="filter13_b_1_123" x="122.022" y="102.896" width="53.9551" height="32.2838" filterUnits="userSpaceOnUse" color-interpolation-filters="sRGB">
<feFlood flood-opacity="0" result="BackgroundImageFix"/>
<feGaussianBlur in="BackgroundImageFix" stdDeviation="4.2"/>
<feComposite in2="SourceAlpha" operator="in" result="effect1_backgroundBlur_1_123"/>
<feBlend mode="normal" in="SourceGraphic" in2="effect1_backgroundBlur_1_123" result="shape"/>
</filter>
<!--<linearGradient id="paint0_linear_1_123" x1="7.45058e-06" y1="200" x2="300" y2="-7.45058e-07" gradientUnits="userSpaceOnUse">
<stop stop-color="#00B49B" stop-opacity="0"/>
<stop offset="0.45" stop-color="#00B9A0" stop-opacity="0.05"/>
<stop offset="1" stop-color="#00BFA5" stop-opacity="0"/>
</linearGradient>-->
</defs>
</svg>
